# xmcd
#
# Track frame offsets:
#	150
#	16502
#	36159
#	54864
#	71986
#	89613
#	99014
#	112531
#	123995
#	141632
#	147953
#	155304
#	170238
#	185816
#	201394
#	207715
#	217126
#	229228
#	243971
#	253380
#	264399
#	277473
#	287908
#	301174
#	308525
#
# Disc length: 4269 seconds
#
# Revision: 1
# Processed by: cddbd v1.5.2PL0 Copyright (c) Steve Scherf et al.
# Submitted via: audiograbber 1.83.01
#
DISCID=8410ab19
DTITLE=Retro Arena The Trance Edition (2007) cd1 - Retro Arena The Trance Editi
DTITLE=on (2007) cd1
DYEAR=1900
DGENRE=
TTITLE0=tiesto - Adagio For Strings
TTITLE1=armin van buuren presents perpetuous reamer - The Sound Of Goodbye
TTITLE2=freefalll ft jan johnston - Skydive
TTITLE3=decy and roy - Inner Life
TTITLE4=rank 1 - Such Is Life
TTITLE5=energy 52 - Cafe Del Mar
TTITLE6=verraccocha -  - Carte Blanche
TTITLE7=carlos - The Silmarillia
TTITLE8=larino stephano - Free Time
TTITLE9=atb - 9pm (Till I Come)
TTITLE10=d*note - Shed My Skin
TTITLE11=cygnus x - Superstring
TTITLE12=rank 1 - Airwave
TTITLE13=armin van buuren - Sail On
TTITLE14=motorcycle - As The Rush Comes
TTITLE15=maurizzio - New Emotion
TTITLE16=checkmate - Another World (Hardmix)
TTITLE17=Mackenzie* Feat. Jessy  - Innocence
TTITLE18=kira - Ill Be Your Angel
TTITLE19=dj wout - Somebody Else
TTITLE20=Trancelucent Feat. Regi  - Lonely
TTITLE21=Zippora - Lotus Eater
TTITLE22=sylver - Turn The Tide
TTITLE23=Flesh and Bones  - Rigor Mortis
TTITLE24=White Widow - Im Leaving You
EXTD=
EXTT0=
EXTT1=
EXTT2=
EXTT3=
EXTT4=
EXTT5=
EXTT6=
EXTT7=
EXTT8=
EXTT9=
EXTT10=
EXTT11=
EXTT12=
EXTT13=
EXTT14=
EXTT15=
EXTT16=
EXTT17=
EXTT18=
EXTT19=
EXTT20=
EXTT21=
EXTT22=
EXTT23=
EXTT24=
PLAYORDER=
